# xmcd
#
# Track frame offsets:
#	150
#	14327
#	43437
#	58575
#	81025
#	96877
#	111415
#	123527
#	139560
#	162687
#
# Disc length: 2390 seconds
#
# Revision: 0
# Processed by: cddbd v1.5.2PL0 Copyright (c) Steve Scherf et al.
# Submitted via: EasyCDDAExtractor 10.5.1.1
#
DISCID=8d09540a
DTITLE=Tortoise and Bonnie 'Prince' Billy - The Brave and The Bold
DYEAR=1900
DGENRE=
TTITLE0=Cravo é Canela
TTITLE1=Thunder Road
TTITLE2=It's Expected I'm Gone
TTITLE3=Daniel
TTITLE4=Love Is Love
TTITLE5=Pancho
TTITLE6=That's Pep!
TTITLE7=Some Say (I Got Devil)
TTITLE8=Cavalry Cross
TTITLE9=On My Own
EXTD=
EXTT0=
EXTT1=
EXTT2=
EXTT3=
EXTT4=
EXTT5=
EXTT6=
EXTT7=
EXTT8=
EXTT9=
PLAYORDER=
